# This file uses centimeters as units for non-parametric coordinates.

v -0.042346 1.026585 0.000000
v -0.049380 1.015381 0.000000
v -0.063495 0.992674 0.000000
v -0.084122 0.958077 0.000000
v -0.103428 0.922504 0.000000
v -0.120471 0.885892 0.000000
v -0.134348 0.848180 0.000000
v -0.144209 0.809429 0.000000
v -0.149347 0.769906 0.000000
v -0.149347 0.730094 0.000000
v -0.144209 0.690571 0.000000
v -0.134348 0.651820 0.000000
v -0.120471 0.614108 0.000000
v -0.103428 0.577496 0.000000
v -0.084122 0.541923 0.000000
v -0.063476 0.507295 0.000000
v -0.042424 0.473539 0.000000
v -0.021894 0.440628 0.000000
v -0.002774 0.408589 0.000000
v 0.014129 0.377496 0.000000
v 0.028158 0.347442 0.000000
v 0.038858 0.318487 0.000000
v 0.046003 0.290571 0.000000
v 0.049557 0.263427 0.000000
v 0.049557 0.236573 0.000000
v 0.046003 0.209429 0.000000
v 0.038858 0.181513 0.000000
v 0.028158 0.152558 0.000000
v 0.014129 0.122504 0.000000
v -0.002774 0.091411 0.000000
v -0.021894 0.059372 0.000000
v -0.042424 0.026461 0.000000
v -0.063476 -0.007295 0.000000
v -0.084122 -0.041923 0.000000
v -0.103428 -0.077496 0.000000
v -0.120471 -0.114108 0.000000
v -0.134348 -0.151820 0.000000
v -0.144209 -0.190571 0.000000
v -0.149347 -0.230094 0.000000
v -0.149347 -0.269906 0.000000
v -0.144209 -0.309429 0.000000
v -0.134348 -0.348180 0.000000
v -0.120471 -0.385892 0.000000
v -0.103428 -0.422504 0.000000
v -0.084122 -0.458077 0.000000
v -0.063476 -0.492705 0.000000
v -0.042424 -0.526461 0.000000
v -0.021894 -0.559372 0.000000
v -0.002774 -0.591411 0.000000
v 0.014129 -0.622504 0.000000
v 0.028158 -0.652558 0.000000
v 0.038858 -0.681513 0.000000
v 0.046003 -0.709429 0.000000
v 0.049557 -0.736573 0.000000
v 0.049557 -0.763427 0.000000
v 0.046003 -0.790571 0.000000
v 0.038858 -0.818487 0.000000
v 0.028158 -0.847442 0.000000
v 0.014129 -0.877496 0.000000
v -0.002774 -0.908589 0.000000
v -0.021913 -0.940659 0.000000
v -0.035429 -0.962397 0.000000
v -0.042346 -0.973415 0.000000
v 0.042346 0.973415 -0.000000
v 0.035429 0.962397 -0.000000
v 0.021913 0.940659 -0.000000
v 0.002774 0.908589 -0.000000
v -0.014129 0.877496 -0.000000
v -0.028158 0.847442 -0.000000
v -0.038858 0.818487 -0.000000
v -0.046003 0.790571 -0.000000
v -0.049557 0.763427 -0.000000
v -0.049557 0.736573 -0.000000
v -0.046003 0.709429 -0.000000
v -0.038858 0.681513 -0.000000
v -0.028158 0.652558 -0.000000
v -0.014129 0.622504 -0.000000
v 0.002774 0.591411 -0.000000
v 0.021894 0.559372 -0.000000
v 0.042424 0.526461 -0.000000
v 0.063476 0.492705 -0.000000
v 0.084122 0.458077 -0.000000
v 0.103428 0.422504 -0.000000
v 0.120471 0.385892 -0.000000
v 0.134348 0.348180 -0.000000
v 0.144209 0.309429 -0.000000
v 0.149347 0.269906 -0.000000
v 0.149347 0.230094 -0.000000
v 0.144209 0.190571 -0.000000
v 0.134348 0.151820 -0.000000
v 0.120471 0.114108 -0.000000
v 0.103428 0.077496 -0.000000
v 0.084122 0.041923 -0.000000
v 0.063476 0.007295 -0.000000
v 0.042424 -0.026461 -0.000000
v 0.021894 -0.059372 -0.000000
v 0.002774 -0.091411 -0.000000
v -0.014129 -0.122504 -0.000000
v -0.028158 -0.152558 -0.000000
v -0.038858 -0.181513 -0.000000
v -0.046003 -0.209429 -0.000000
v -0.049557 -0.236573 -0.000000
v -0.049557 -0.263427 -0.000000
v -0.046003 -0.290571 -0.000000
v -0.038858 -0.318487 -0.000000
v -0.028158 -0.347442 -0.000000
v -0.014129 -0.377496 -0.000000
v 0.002774 -0.408589 -0.000000
v 0.021894 -0.440628 -0.000000
v 0.042424 -0.473539 -0.000000
v 0.063476 -0.507295 -0.000000
v 0.084122 -0.541923 -0.000000
v 0.103428 -0.577496 -0.000000
v 0.120471 -0.614108 -0.000000
v 0.134348 -0.651820 -0.000000
v 0.144209 -0.690571 -0.000000
v 0.149347 -0.730094 -0.000000
v 0.149347 -0.769906 -0.000000
v 0.144209 -0.809429 -0.000000
v 0.134348 -0.848180 -0.000000
v 0.120471 -0.885892 -0.000000
v 0.103428 -0.922504 -0.000000
v 0.084122 -0.958077 -0.000000
v 0.063495 -0.992674 -0.000000
v 0.049380 -1.015381 -0.000000
v 0.042346 -1.026585 -0.000000
vt 0.000000 0.000000
vt 0.000000 0.333333
vt 0.000000 1.000000
vt 0.000000 2.000000
vt 0.000000 3.000000
vt 0.000000 4.000000
vt 0.000000 5.000000
vt 0.000000 6.000000
vt 0.000000 7.000000
vt 0.000000 8.000000
vt 0.000000 9.000000
vt 0.000000 10.000000
vt 0.000000 11.000000
vt 0.000000 12.000000
vt 0.000000 13.000000
vt 0.000000 14.000000
vt 0.000000 15.000000
vt 0.000000 16.000000
vt 0.000000 17.000000
vt 0.000000 18.000000
vt 0.000000 19.000000
vt 0.000000 20.000000
vt 0.000000 21.000000
vt 0.000000 22.000000
vt 0.000000 23.000000
vt 0.000000 24.000000
vt 0.000000 25.000000
vt 0.000000 26.000000
vt 0.000000 27.000000
vt 0.000000 28.000000
vt 0.000000 29.000000
vt 0.000000 30.000000
vt 0.000000 31.000000
vt 0.000000 32.000000
vt 0.000000 33.000000
vt 0.000000 34.000000
vt 0.000000 35.000000
vt 0.000000 36.000000
vt 0.000000 37.000000
vt 0.000000 38.000000
vt 0.000000 39.000000
vt 0.000000 40.000000
vt 0.000000 41.000000
vt 0.000000 42.000000
vt 0.000000 43.000000
vt 0.000000 44.000000
vt 0.000000 45.000000
vt 0.000000 46.000000
vt 0.000000 47.000000
vt 0.000000 48.000000
vt 0.000000 49.000000
vt 0.000000 50.000000
vt 0.000000 51.000000
vt 0.000000 52.000000
vt 0.000000 53.000000
vt 0.000000 54.000000
vt 0.000000 55.000000
vt 0.000000 56.000000
vt 0.000000 57.000000
vt 0.000000 58.000000
vt 0.000000 59.000000
vt 0.000000 59.666668
vt 0.000000 60.000000
vt 1.000000 0.000000
vt 1.000000 0.333333
vt 1.000000 1.000000
vt 1.000000 2.000000
vt 1.000000 3.000000
vt 1.000000 4.000000
vt 1.000000 5.000000
vt 1.000000 6.000000
vt 1.000000 7.000000
vt 1.000000 8.000000
vt 1.000000 9.000000
vt 1.000000 10.000000
vt 1.000000 11.000000
vt 1.000000 12.000000
vt 1.000000 13.000000
vt 1.000000 14.000000
vt 1.000000 15.000000
vt 1.000000 16.000000
vt 1.000000 17.000000
vt 1.000000 18.000000
vt 1.000000 19.000000
vt 1.000000 20.000000
vt 1.000000 21.000000
vt 1.000000 22.000000
vt 1.000000 23.000000
vt 1.000000 24.000000
vt 1.000000 25.000000
vt 1.000000 26.000000
vt 1.000000 27.000000
vt 1.000000 28.000000
vt 1.000000 29.000000
vt 1.000000 30.000000
vt 1.000000 31.000000
vt 1.000000 32.000000
vt 1.000000 33.000000
vt 1.000000 34.000000
vt 1.000000 35.000000
vt 1.000000 36.000000
vt 1.000000 37.000000
vt 1.000000 38.000000
vt 1.000000 39.000000
vt 1.000000 40.000000
vt 1.000000 41.000000
vt 1.000000 42.000000
vt 1.000000 43.000000
vt 1.000000 44.000000
vt 1.000000 45.000000
vt 1.000000 46.000000
vt 1.000000 47.000000
vt 1.000000 48.000000
vt 1.000000 49.000000
vt 1.000000 50.000000
vt 1.000000 51.000000
vt 1.000000 52.000000
vt 1.000000 53.000000
vt 1.000000 54.000000
vt 1.000000 55.000000
vt 1.000000 56.000000
vt 1.000000 57.000000
vt 1.000000 58.000000
vt 1.000000 59.000000
vt 1.000000 59.666668
vt 1.000000 60.000000
vn 0.000000 0.000000 -1.000000
vn -0.000000 -0.000000 -1.000000
vn -0.000000 0.000000 -1.000000
vn -0.000000 -0.000000 -1.000000
vn -0.000000 0.000000 -1.000000
vn -0.000000 0.000000 -1.000000
vn -0.000000 0.000000 -1.000000
vn -0.000000 0.000000 -1.000000
vn -0.000000 0.000000 -1.000000
vn -0.000000 0.000000 -1.000000
vn -0.000000 0.000000 -1.000000
vn -0.000000 0.000000 -1.000000
vn -0.000000 0.000000 -1.000000
vn -0.000000 0.000000 -1.000000
vn -0.000000 0.000000 -1.000000
vn -0.000000 0.000000 -1.000000
vn -0.000000 -0.000000 -1.000000
vn -0.000000 0.000000 -1.000000
vn -0.000000 -0.000000 -1.000000
vn -0.000000 -0.000000 -1.000000
vn -0.000000 0.000000 -1.000000
vn -0.000000 -0.000000 -1.000000
vn -0.000000 0.000000 -1.000000
vn -0.000000 -0.000000 -1.000000
vn -0.000000 -0.000000 -1.000000
vn -0.000000 -0.000000 -1.000000
vn -0.000000 -0.000000 -1.000000
vn -0.000000 -0.000000 -1.000000
vn -0.000000 -0.000000 -1.000000
vn -0.000000 -0.000000 -1.000000
vn -0.000000 -0.000000 -1.000000
vn -0.000000 -0.000000 -1.000000
vn -0.000000 -0.000000 -1.000000
vn -0.000000 -0.000000 -1.000000
vn -0.000000 -0.000000 -1.000000
vn -0.000000 -0.000000 -1.000000
vn -0.000000 -0.000000 -1.000000
vn -0.000000 -0.000000 -1.000000
vn -0.000000 -0.000000 -1.000000
vn -0.000000 -0.000000 -1.000000
vn -0.000000 -0.000000 -1.000000
vn -0.000000 -0.000000 -1.000000
vn -0.000000 0.000000 -1.000000
vn -0.000000 -0.000000 -1.000000
vn -0.000000 -0.000000 -1.000000
vn -0.000000 0.000000 -1.000000
vn -0.000000 -0.000000 -1.000000
vn -0.000000 0.000000 -1.000000
vn -0.000000 0.000000 -1.000000
vn -0.000000 -0.000000 -1.000000
vn -0.000000 0.000000 -1.000000
vn -0.000000 0.000000 -1.000000
vn -0.000000 0.000000 -1.000000
vn -0.000000 -0.000000 -1.000000
vn -0.000000 0.000000 -1.000000
vn -0.000000 0.000000 -1.000000
vn -0.000000 0.000000 -1.000000
vn -0.000000 0.000000 -1.000000
vn -0.000000 0.000000 -1.000000
vn -0.000000 0.000000 -1.000000
vn -0.000000 0.000000 -1.000000
vn -0.000000 0.000000 -1.000000
vn -0.000000 0.000000 -1.000000
vn -0.000000 0.000000 -1.000000
vn -0.000000 0.000000 -1.000000
vn -0.000000 0.000000 -1.000000
vn -0.000000 0.000000 -1.000000
vn -0.000000 0.000000 -1.000000
vn -0.000000 0.000000 -1.000000
vn -0.000000 0.000000 -1.000000
vn -0.000000 0.000000 -1.000000
vn -0.000000 0.000000 -1.000000
vn -0.000000 0.000000 -1.000000
vn -0.000000 0.000000 -1.000000
vn -0.000000 0.000000 -1.000000
vn -0.000000 -0.000000 -1.000000
vn -0.000000 0.000000 -1.000000
vn -0.000000 -0.000000 -1.000000
vn -0.000000 -0.000000 -1.000000
vn -0.000000 -0.000000 -1.000000
vn -0.000000 -0.000000 -1.000000
vn -0.000000 0.000000 -1.000000
vn -0.000000 -0.000000 -1.000000
vn -0.000000 -0.000000 -1.000000
vn -0.000000 -0.000000 -1.000000
vn -0.000000 -0.000000 -1.000000
vn -0.000000 -0.000000 -1.000000
vn -0.000000 -0.000000 -1.000000
vn -0.000000 -0.000000 -1.000000
vn -0.000000 -0.000000 -1.000000
vn -0.000000 -0.000000 -1.000000
vn -0.000000 -0.000000 -1.000000
vn -0.000000 -0.000000 -1.000000
vn -0.000000 -0.000000 -1.000000
vn -0.000000 -0.000000 -1.000000
vn -0.000000 -0.000000 -1.000000
vn -0.000000 -0.000000 -1.000000
vn -0.000000 -0.000000 -1.000000
vn -0.000000 -0.000000 -1.000000
vn -0.000000 -0.000000 -1.000000
vn -0.000000 -0.000000 -1.000000
vn -0.000000 -0.000000 -1.000000
vn -0.000000 -0.000000 -1.000000
vn -0.000000 -0.000000 -1.000000
vn -0.000000 -0.000000 -1.000000
vn -0.000000 -0.000000 -1.000000
vn -0.000000 -0.000000 -1.000000
vn -0.000000 0.000000 -1.000000
vn -0.000000 0.000000 -1.000000
vn -0.000000 0.000000 -1.000000
vn -0.000000 -0.000000 -1.000000
vn -0.000000 0.000000 -1.000000
vn -0.000000 0.000000 -1.000000
vn -0.000000 0.000000 -1.000000
vn -0.000000 0.000000 -1.000000
vn -0.000000 0.000000 -1.000000
vn -0.000000 0.000000 -1.000000
vn -0.000000 0.000000 -1.000000
vn -0.000000 0.000000 -1.000000
vn -0.000000 0.000000 -1.000000
vn -0.000000 0.000000 -1.000000
vn -0.000000 0.000000 -1.000000
vn -0.000000 0.000000 -1.000000
vn -0.000000 0.000000 -1.000000
vn -0.000000 0.000000 -1.000000
vn -0.000000 -0.000000 -1.000000
f 1/1/1 64/64/2 2/2/3
f 2/2/3 64/64/2 65/65/4
f 65/65/4 66/66/5 2/2/3
f 2/2/3 66/66/5 3/3/6
f 66/66/5 67/67/7 3/3/6
f 3/3/6 67/67/7 4/4/8
f 67/67/7 68/68/9 4/4/8
f 4/4/8 68/68/9 5/5/10
f 68/68/9 69/69/11 5/5/10
f 5/5/10 69/69/11 6/6/12
f 69/69/11 70/70/13 6/6/12
f 6/6/12 70/70/13 7/7/14
f 70/70/13 71/71/15 7/7/14
f 7/7/14 71/71/15 8/8/16
f 71/71/15 72/72/17 8/8/16
f 8/8/16 72/72/17 9/9/18
f 9/9/18 72/72/17 10/10/19
f 10/10/19 72/72/17 73/73/20
f 10/10/19 73/73/20 11/11/21
f 11/11/21 73/73/20 74/74/22
f 11/11/21 74/74/22 12/12/23
f 12/12/23 74/74/22 75/75/24
f 12/12/23 75/75/24 13/13/25
f 13/13/25 75/75/24 76/76/26
f 13/13/25 76/76/26 14/14/27
f 14/14/27 76/76/26 77/77/28
f 14/14/27 77/77/28 15/15/29
f 15/15/29 77/77/28 78/78/30
f 15/15/29 78/78/30 16/16/31
f 16/16/31 78/78/30 79/79/32
f 16/16/31 79/79/32 17/17/33
f 17/17/33 79/79/32 80/80/34
f 17/17/33 80/80/34 18/18/35
f 18/18/35 80/80/34 81/81/36
f 18/18/35 81/81/36 19/19/37
f 19/19/37 81/81/36 82/82/38
f 19/19/37 82/82/38 20/20/39
f 20/20/39 82/82/38 83/83/40
f 20/20/39 83/83/40 21/21/41
f 21/21/41 83/83/40 84/84/42
f 21/21/41 84/84/42 22/22/43
f 22/22/43 84/84/42 85/85/44
f 22/22/43 85/85/44 23/23/45
f 23/23/45 85/85/44 86/86/46
f 23/23/45 86/86/46 24/24/47
f 24/24/47 86/86/46 87/87/48
f 24/24/47 87/87/48 25/25/49
f 25/25/49 87/87/48 88/88/50
f 88/88/50 89/89/51 25/25/49
f 25/25/49 89/89/51 26/26/52
f 89/89/51 90/90/53 26/26/52
f 26/26/52 90/90/53 27/27/54
f 90/90/53 91/91/55 27/27/54
f 27/27/54 91/91/55 28/28/56
f 91/91/55 92/92/57 28/28/56
f 28/28/56 92/92/57 29/29/58
f 92/92/57 93/93/59 29/29/58
f 29/29/58 93/93/59 30/30/60
f 93/93/59 94/94/61 30/30/60
f 30/30/60 94/94/61 31/31/62
f 94/94/61 95/95/63 31/31/62
f 31/31/62 95/95/63 32/32/64
f 95/95/63 96/96/65 32/32/64
f 32/32/64 96/96/65 33/33/66
f 96/96/65 97/97/67 33/33/66
f 33/33/66 97/97/67 34/34/68
f 97/97/67 98/98/69 34/34/68
f 34/34/68 98/98/69 35/35/70
f 98/98/69 99/99/71 35/35/70
f 35/35/70 99/99/71 36/36/72
f 99/99/71 100/100/73 36/36/72
f 36/36/72 100/100/73 37/37/74
f 100/100/73 101/101/75 37/37/74
f 37/37/74 101/101/75 38/38/76
f 101/101/75 102/102/77 38/38/76
f 38/38/76 102/102/77 39/39/78
f 39/39/78 102/102/77 40/40/79
f 40/40/79 102/102/77 103/103/80
f 40/40/79 103/103/80 41/41/81
f 41/41/81 103/103/80 104/104/82
f 41/41/81 104/104/82 42/42/83
f 42/42/83 104/104/82 105/105/84
f 42/42/83 105/105/84 43/43/85
f 43/43/85 105/105/84 106/106/86
f 43/43/85 106/106/86 44/44/87
f 44/44/87 106/106/86 107/107/88
f 44/44/87 107/107/88 45/45/89
f 45/45/89 107/107/88 108/108/90
f 45/45/89 108/108/90 46/46/91
f 46/46/91 108/108/90 109/109/92
f 46/46/91 109/109/92 47/47/93
f 47/47/93 109/109/92 110/110/94
f 47/47/93 110/110/94 48/48/95
f 48/48/95 110/110/94 111/111/96
f 48/48/95 111/111/96 49/49/97
f 49/49/97 111/111/96 112/112/98
f 49/49/97 112/112/98 50/50/99
f 50/50/99 112/112/98 113/113/100
f 50/50/99 113/113/100 51/51/101
f 51/51/101 113/113/100 114/114/102
f 51/51/101 114/114/102 52/52/103
f 52/52/103 114/114/102 115/115/104
f 52/52/103 115/115/104 53/53/105
f 53/53/105 115/115/104 116/116/106
f 53/53/105 116/116/106 54/54/107
f 54/54/107 116/116/106 117/117/108
f 54/54/107 117/117/108 55/55/109
f 55/55/109 117/117/108 118/118/110
f 118/118/110 119/119/111 55/55/109
f 55/55/109 119/119/111 56/56/112
f 119/119/111 120/120/113 56/56/112
f 56/56/112 120/120/113 57/57/114
f 120/120/113 121/121/115 57/57/114
f 57/57/114 121/121/115 58/58/116
f 121/121/115 122/122/117 58/58/116
f 58/58/116 122/122/117 59/59/118
f 122/122/117 123/123/119 59/59/118
f 59/59/118 123/123/119 60/60/120
f 123/123/119 124/124/121 60/60/120
f 60/60/120 124/124/121 61/61/122
f 124/124/121 125/125/123 61/61/122
f 61/61/122 125/125/123 62/62/124
f 62/62/124 125/125/123 63/63/125
f 63/63/125 125/125/123 126/126/126
